# xmcd
#
# Track frame offsets:
#	150
#	19246
#	29402
#	48616
#	65828
#	83598
#	101281
#	120563
#	137718
#	156187
#	169669
#
# Disc length: 2524 seconds
#
# Revision: 0
# Processed by: cddbd v1.5.2PL0 Copyright (c) Steve Scherf et al.
# Submitted via: EasyCDDAExtractor 8.0.0.1
#
DISCID=8d09da0b
DTITLE=Various Artist - Profesorado en Ritmos Caribeños (amarillo)
DYEAR=1900
DGENRE=latin
TTITLE0=Azúcar
TTITLE1=La Bomba
TTITLE2=Estoy aqui
TTITLE3=Mueve la colita
TTITLE4=Onda Onda
TTITLE5=Olé (Rumba)
TTITLE6=Tan a gustito (Rumba flamenca)
TTITLE7=No te enamores (Rumba fusión)
TTITLE8=Rumba cubana
TTITLE9=Calipso
TTITLE10=Varios - Mami mami (Calipso)
EXTD=
EXTT0=
EXTT1=
EXTT2=
EXTT3=
EXTT4=
EXTT5=
EXTT6=
EXTT7=
EXTT8=
EXTT9=
EXTT10=
PLAYORDER=
